#N canvas 109 94 1353 1051 12;
#X obj 112 228 hsl 162 19 0 180 0 0 empty \$0-servo1 servo\ 1 170 10 0 12 #feffc6 #000000 #000000 0 1;
#X obj 112 249 hsl 162 19 0 180 0 0 empty \$0-servo2 servo\ 2 170 10 0 12 #ffe3c6 #000000 #000000 0 1;
#X obj 112 270 hsl 162 19 0 180 0 0 empty \$0-servo3 servo\ 3 170 10 0 12 #ffc7c6 #000000 #000000 0 1;
#X obj 112 141 hsl 162 19 0 1024 0 0 empty \$0-LDR LDR 170 10 0 12 #c6ffc7 #000000 #000000 0 1;
#X obj 112 162 hsl 162 19 0 1024 0 0 empty \$0-average1 average\ 1 170 10 0 12 #feffc6 #000000 #000000 0 1;
#X obj 112 183 hsl 162 19 0 1024 0 0 empty \$0-average2 average\ 2 170 10 0 12 #ffe3c6 #000000 #000000 0 1;
#X obj 112 204 hsl 162 19 0 1024 0 0 empty \$0-average3 average\ 3 170 10 0 12 #ffc7c6 #000000 #000000 0 1;
#X obj 111 317 hsl 162 19 0 180 0 0 \$0-servomin1 empty min\ servo\ 1 170 10 0 12 #feffc6 #000000 #000000 0 0;
#X obj 111 338 hsl 162 19 0 180 0 0 \$0-servomin2 empty min\ servo\ 2 170 10 0 12 #feffc6 #000000 #000000 0 0;
#X obj 111 359 hsl 162 19 0 180 0 0 \$0-servomin3 empty min\ servo\ 3 170 10 0 12 #feffc6 #000000 #000000 0 0;
#X obj 111 381 hsl 162 19 0 180 0 0 \$0-servomax1 empty max\ servo\ 1 170 10 0 12 #c6ffc7 #000000 #000000 0 0;
#X obj 111 402 hsl 162 19 0 180 0 0 \$0-servomax2 empty max\ servo\ 2 170 10 0 12 #c6ffc7 #000000 #000000 0 0;
#X obj 111 423 hsl 162 19 0 180 0 0 \$0-servomax3 empty max\ servo\ 3 170 10 0 12 #c6ffc7 #000000 #000000 0 0;
#X obj 895 598 int;
#X obj 695 687 s sendOSC;
#X obj 694 600 int;
#X obj 1087 599 int;
#X obj 894 745 int;
#X obj 693 747 int;
#X obj 1086 746 int;
#X obj 694 577 r \$0-servomin1;
#X obj 895 575 r \$0-servomin2;
#X obj 1087 576 r \$0-servomin3;
#X obj 1086 723 r \$0-servomax3;
#X obj 894 722 r \$0-servomax2;
#X obj 693 724 r \$0-servomax1;
#X obj 694 834 s \$0-sendOSC;
#N canvas 110 94 1353 1051 osc.serial 0;
#X obj 51 26 inlet;
#X obj 51 375 outlet;
#X msg 106 94 close;
#X msg 161 94 devices;
#X msg 51 128 devicename \$1 \, baud 115200 \, pollintervall 1;
#X obj 51 94 symbol;
#X obj 51 60 route open close devices;
#X obj 216 193 slip/slipenc 65536;
#X obj 51 225 comport/comport;
#X obj 51 266 slip/slipdec 65536;
#X obj 51 340 list trim;
#X obj 51 303 oscparse;
#N canvas 110 94 956 830 oscformat 0;
#X obj 39 25 inlet;
#X obj 79 229 outlet;
#X obj 79 189 oscformat;
#X obj 151 97 list split 1;
#X obj 39 62 t a a;
#X msg 151 141 set \$1;
#X obj 39 97 list split 1;
#X text 207 140 address;
#X text 39 140 args;
#X connect 0 0 4 0;
#X connect 2 0 1 0;
#X connect 3 0 5 0;
#X connect 4 0 6 0;
#X connect 4 1 3 0;
#X connect 5 0 2 0;
#X connect 6 1 2 0;
#X restore 373 160 pd oscformat;
#X obj 216 158 packOSC;
#X connect 0 0 6 0;
#X connect 2 0 8 0;
#X connect 3 0 8 0;
#X connect 4 0 8 0;
#X connect 5 0 4 0;
#X connect 6 0 5 0;
#X connect 6 1 2 0;
#X connect 6 2 3 0;
#X connect 6 3 13 0;
#X connect 7 0 8 0;
#X connect 8 0 9 0;
#X connect 9 0 11 0;
#X connect 10 0 1 0;
#X connect 11 0 10 0;
#X connect 13 0 7 0;
#X restore 699 291 pd osc.serial;
#X obj 699 320 route servo ldr average;
#X obj 699 440 route 1 2 3;
#X obj 804 440 route 1 2 3;
#X obj 748 466 s \$0-servo3;
#X obj 723 485 s \$0-servo2;
#X obj 699 504 s \$0-servo1;
#X obj 853 466 s \$0-average3;
#X obj 828 485 s \$0-average2;
#X obj 804 504 s \$0-average1;
#X obj 707 127 inlet;
#X msg 763 238 open \$1;
#X obj 706 210 r \$0-sendOSC;
#X obj 751 353 s \$0-LDR;
#X obj 796 138 inlet;
#X obj 805 194 symbol \$1;
#X text 107 301 WRITE;
#X text 108 121 READ;
#X msg 895 620 /set/servo/min 2 \$1;
#X msg 694 622 /set/servo/min 1 \$1;
#X msg 693 769 /set/servo/max 1 \$1;
#X msg 894 767 /set/servo/max 2 \$1;
#X msg 1087 621 /set/servo/min 3 \$1;
#X msg 1086 768 /set/servo/max 3 \$1;
#X obj 110 482 hsl 162 19 0 180 0 0 \$0-servopos1 empty servo\ pos\ 1 170 10 0 12 #c6feff #000000 #000000 0 0;
#X obj 110 503 hsl 162 19 0 180 0 0 \$0-servopos2 empty servo\ pos\ 2 170 10 0 12 #c7c6ff #000000 #000000 0 0;
#X obj 110 524 hsl 162 19 0 180 0 0 \$0-servopos3 empty servo\ pos\ 3 170 10 0 12 #e3c6ff #000000 #000000 0 0;
#X obj 897 878 int;
#X obj 696 880 int;
#X obj 1089 879 int;
#X obj 697 967 s \$0-sendOSC;
#X obj 696 857 r \$0-servopos1;
#X obj 897 855 r \$0-servopos2;
#X obj 1089 856 r \$0-servopos3;
#X msg 696 902 /set/servo/pos 1 \$1;
#X msg 897 900 /set/servo/pos 2 \$1;
#X msg 1089 901 /set/servo/pos 3 \$1;
#X obj 205 458 bng 19 250 50 0 \$0-okmode empty ok\ mode 25 10 0 12 #c6feff #000000 #000000;
#X obj 110 458 bng 19 250 50 0 \$0-usermode empty user\ mode 25 10 0 12 #feffc6 #000000 #000000;
#X obj 491 960 s \$0-sendOSC;
#X msg 490 895 /set/mode 0;
#X obj 490 850 r \$0-okmode;
#X obj 373 958 s \$0-sendOSC;
#X obj 372 848 r \$0-usermode;
#X msg 372 893 /set/mode 1;
#X connect 13 0 45 0;
#X connect 15 0 46 0;
#X connect 16 0 49 0;
#X connect 17 0 48 0;
#X connect 18 0 47 0;
#X connect 19 0 50 0;
#X connect 20 0 15 0;
#X connect 21 0 13 0;
#X connect 22 0 16 0;
#X connect 23 0 19 0;
#X connect 24 0 17 0;
#X connect 25 0 18 0;
#X connect 27 0 28 0;
#X connect 28 0 29 0;
#X connect 28 1 40 0;
#X connect 28 2 30 0;
#X connect 29 0 33 0;
#X connect 29 1 32 0;
#X connect 29 2 31 0;
#X connect 30 0 36 0;
#X connect 30 1 35 0;
#X connect 30 2 34 0;
#X connect 37 0 27 0;
#X connect 38 0 27 0;
#X connect 39 0 27 0;
#X connect 41 0 42 0;
#X connect 42 0 38 0;
#X connect 45 0 14 0;
#X connect 46 0 14 0;
#X connect 47 0 26 0;
#X connect 48 0 26 0;
#X connect 49 0 14 0;
#X connect 50 0 26 0;
#X connect 54 0 62 0;
#X connect 55 0 61 0;
#X connect 56 0 63 0;
#X connect 58 0 55 0;
#X connect 59 0 54 0;
#X connect 60 0 56 0;
#X connect 61 0 57 0;
#X connect 62 0 57 0;
#X connect 63 0 57 0;
#X connect 67 0 66 0;
#X connect 68 0 67 0;
#X connect 70 0 71 0;
#X connect 71 0 69 0;
#X coords 0 0 1 1 280 450 1 100 100;
