#N canvas 592 52 1250 1005 12;
#X msg 67 30 devices;
#X obj 315 63 bng 19 250 50 0 empty empty empty 0 -10 0 12 #fcfcfc #000000 #000000;
#X msg 350 22 devices;
#X obj 617 64 bng 19 250 50 0 empty empty empty 0 -10 0 12 #fcfcfc #000000 #000000;
#X obj 344 87 oribokit.osc /dev/tty.usbmodem21701;
#X msg 89 56 close, f 6;
#X msg 363 47 close, f 6;
#X obj 38 87 oribokit.osc /dev/tty.usbmodem2101;
#X connect 0 0 7 0;
#X connect 1 0 7 1;
#X connect 2 0 4 0;
#X connect 3 0 4 1;
#X connect 5 0 7 0;
#X connect 6 0 4 0;
