#N canvas 23 97 1649 1058 12;
#X obj 112 228 hsl 162 19 0 180 0 0 empty \$0-servo1 servo\ 1 170 10 0 12 #feffc6 #000000 #000000 0 1;
#X obj 112 249 hsl 162 19 0 180 0 0 empty \$0-servo2 servo\ 2 170 10 0 12 #ffe3c6 #000000 #000000 0 1;
#X obj 112 270 hsl 162 19 0 180 0 0 empty \$0-servo3 servo\ 3 170 10 0 12 #ffc7c6 #000000 #000000 0 1;
#X obj 112 141 hsl 162 19 0 1024 0 0 empty \$0-LDR LDR 170 10 0 12 #c6ffc7 #000000 #000000 0 1;
#X obj 112 162 hsl 162 19 0 1024 0 0 empty \$0-average1 average\ 1 170 10 0 12 #feffc6 #000000 #000000 0 1;
#X obj 112 183 hsl 162 19 0 1024 0 0 empty \$0-average2 average\ 2 170 10 0 12 #ffe3c6 #000000 #000000 0 1;
#X obj 112 204 hsl 162 19 0 1024 0 0 empty \$0-average3 average\ 3 170 10 0 12 #ffc7c6 #000000 #000000 0 1;
#X obj 110 397 hsl 162 19 0 180 0 0 \$0-servomin1 \$0-r-servomin1 min\ servo\ 1 170 10 0 12 #feffc6 #000000 #000000 0 0;
#X obj 110 418 hsl 162 19 0 180 0 0 \$0-servomin2 \$0-r-servomin2 min\ servo\ 2 170 10 0 12 #feffc6 #000000 #000000 0 0;
#X obj 110 439 hsl 162 19 0 180 0 0 \$0-servomin3 \$0-r-servomin3 min\ servo\ 3 170 10 0 12 #feffc6 #000000 #000000 0 0;
#X obj 110 461 hsl 162 19 0 180 0 0 \$0-servomax1 \$0-r-servomax1 max\ servo\ 1 170 10 0 12 #c6ffc7 #000000 #000000 0 0;
#X obj 110 482 hsl 162 19 0 180 0 0 \$0-servomax2 \$0-r-servomax2 max\ servo\ 2 170 10 0 12 #c6ffc7 #000000 #000000 0 0;
#X obj 110 503 hsl 162 19 0 180 0 0 \$0-servomax3 \$0-r-servomax3 max\ servo\ 3 170 10 0 12 #c6ffc7 #000000 #000000 0 0;
#X obj 907 509 int;
#X obj 706 511 int;
#X obj 1099 510 int;
#X obj 855 669 int;
#X obj 705 669 int;
#X obj 1004 669 int;
#X obj 706 488 r \$0-servomin1;
#X obj 907 486 r \$0-servomin2;
#X obj 1099 487 r \$0-servomin3;
#X obj 1004 646 r \$0-servomax3;
#X obj 855 646 r \$0-servomax2;
#X obj 705 646 r \$0-servomax1;
#X obj 704 735 s \$0-sendOSC;
#N canvas 23 97 1649 1058 osc.serial 1;
#X obj 51 26 inlet;
#X obj 51 375 outlet;
#X msg 106 94 close;
#X msg 161 94 devices;
#X msg 51 128 devicename \$1 \, baud 115200 \, pollintervall 1;
#X obj 51 94 symbol;
#X obj 51 60 route open close devices;
#X obj 216 193 slip/slipenc 65536;
#X obj 51 225 comport/comport;
#X obj 51 266 slip/slipdec 65536;
#X obj 51 340 list trim;
#X obj 51 303 oscparse;
#N canvas 110 94 956 830 oscformat 0;
#X obj 39 25 inlet;
#X obj 79 229 outlet;
#X obj 79 189 oscformat;
#X obj 151 97 list split 1;
#X obj 39 62 t a a;
#X msg 151 141 set \$1;
#X obj 39 97 list split 1;
#X text 207 140 address;
#X text 39 140 args;
#X connect 0 0 4 0;
#X connect 2 0 1 0;
#X connect 3 0 5 0;
#X connect 4 0 6 0;
#X connect 4 1 3 0;
#X connect 5 0 2 0;
#X connect 6 1 2 0;
#X restore 373 160 pd oscformat;
#X obj 216 158 packOSC;
#X connect 0 0 6 0;
#X connect 2 0 8 0;
#X connect 3 0 8 0;
#X connect 4 0 8 0;
#X connect 5 0 4 0;
#X connect 6 0 5 0;
#X connect 6 1 2 0;
#X connect 6 2 3 0;
#X connect 6 3 13 0;
#X connect 7 0 8 0;
#X connect 8 0 9 0;
#X connect 9 0 11 0;
#X connect 10 0 1 0;
#X connect 11 0 10 0;
#X connect 13 0 7 0;
#X restore 582 177 pd osc.serial;
#X obj 1052 80 route 1 2 3;
#X obj 1604 362 route 1 2 3;
#X obj 1101 106 s \$0-servo3;
#X obj 1076 125 s \$0-servo2;
#X obj 1052 144 s \$0-servo1;
#X obj 1628 407 s \$0-average2;
#X obj 1604 426 s \$0-average1;
#X obj 590 13 inlet;
#X msg 646 124 open \$1;
#X obj 589 96 r \$0-sendOSC;
#X obj 632 243 s \$0-LDR;
#X obj 679 24 inlet;
#X obj 688 80 symbol \$1;
#X text 106 381 WRITE;
#X text 108 121 READ;
#X msg 907 531 /set/servo/min 2 \$1;
#X msg 706 533 /set/servo/min 1 \$1;
#X msg 705 691 /set/servo/max 1 \$1;
#X msg 855 691 /set/servo/max 2 \$1;
#X msg 1099 532 /set/servo/min 3 \$1;
#X msg 1004 691 /set/servo/max 3 \$1;
#X obj 109 562 hsl 162 19 0 180 0 0 \$0-servopos1 empty servo\ pos\ 1 170 10 0 12 #c6feff #000000 #000000 0 0;
#X obj 109 583 hsl 162 19 0 180 0 0 \$0-servopos2 empty servo\ pos\ 2 170 10 0 12 #c7c6ff #000000 #000000 0 0;
#X obj 109 604 hsl 162 19 0 180 0 0 \$0-servopos3 empty servo\ pos\ 3 170 10 0 12 #e3c6ff #000000 #000000 0 0;
#X obj 856 790 int;
#X obj 708 791 int;
#X obj 1001 789 int;
#X obj 708 861 s \$0-sendOSC;
#X obj 708 768 r \$0-servopos1;
#X obj 856 767 r \$0-servopos2;
#X obj 1001 766 r \$0-servopos3;
#X msg 708 813 /set/servo/pos 1 \$1;
#X msg 856 812 /set/servo/pos 2 \$1;
#X msg 1001 811 /set/servo/pos 3 \$1;
#X obj 204 538 bng 19 250 50 0 \$0-okmode empty ok\ mode 25 10 0 12 #c6feff #000000 #000000;
#X obj 109 538 bng 19 250 50 0 \$0-usermode empty user\ mode 25 10 0 12 #feffc6 #000000 #000000;
#X obj 538 601 s \$0-sendOSC;
#X msg 537 576 /set/mode 0;
#X obj 537 551 r \$0-okmode;
#X obj 420 599 s \$0-sendOSC;
#X obj 419 549 r \$0-usermode;
#X msg 419 574 /set/mode 1;
#X obj 707 598 s \$0-sendOSC;
#X obj 1140 165 route 1 2 3;
#X obj 1331 147 route 1 2 3;
#X floatatom 237 418 5 0 0 0 - \$0-r-servomin1 - 0;
#X floatatom 237 439 5 0 0 0 - \$0-r-servomin3 - 0;
#X floatatom 237 397 5 0 0 0 - \$0-r-servomin1 - 0;
#X floatatom 237 482 5 0 0 0 - \$0-n-servomax2 - 0;
#X floatatom 237 503 5 0 0 0 - \$0-n-servomax3 - 0;
#X floatatom 237 462 5 0 0 0 - \$0-n-servomax1 - 0;
#X text 106 633 counters;
#X obj 109 657 hsl 162 19 0 50 0 0 \$0-loopDelay empty loop\ delay 170 10 0 12 #fcfcfc #000000 #000000 0 0;
#X obj 582 206 route servo ldr average ack timers counters;
#X obj 1605 224 r \$0-loopDelay;
#X obj 1605 297 s \$0-sendOSC;
#X msg 1605 271 /set/loopDelay \$1;
#X obj 1605 248 int;
#X obj 109 678 hsl 162 19 0 200 0 0 empty \$0-counterA counter\ A 170 10 0 12 #c6ffc7 #000000 #000000 0 1;
#X obj 109 699 hsl 162 19 0 8 0 0 empty \$0-counterB counter\ B 170 10 0 12 #c6feff #000000 #000000 0 1;
#X obj 1604 531 s \$0-counterA;
#X obj 1653 388 s \$0-average3;
#X obj 1634 510 s \$0-counterB;
#X obj 831 234 s \$0-counters;
#X obj 1604 464 r \$0-counters;
#X obj 780 257 s \$0-timers;
#X obj 681 278 s \$0-average;
#X obj 1604 336 r \$0-average;
#X obj 582 264 s \$0-servos;
#X obj 1052 19 r \$0-servos;
#X obj 938 347 r \$0-timers;
#X msg 938 408 range 0 \$1;
#X obj 938 376 route A B;
#X obj 938 433 s \$0-counterA;
#X msg 1035 408 range 0 \$1;
#X obj 1035 433 s \$0-counterB;
#X obj 433 346 r \$0-ack;
#X obj 740 311 s \$0-ack;
#X floatatom 235 657 5 0 0 0 - \$0-n-loopDelay - 0;
#X floatatom 235 678 5 0 0 0 - \$0-r-counterA - 0;
#X obj 504 416 s \$0-n-loopDelay;
#X obj 1140 319 s \$0-n-servomin1;
#X obj 1164 249 s \$0-n-servomin2;
#X obj 1189 190 s \$0-n-servomin3;
#X obj 1380 193 s \$0-n-servomax3;
#X obj 1357 262 s \$0-n-servomax2;
#X obj 1337 324 s \$0-n-servomax1;
#X msg 1333 345 set \$1;
#X obj 1333 364 s \$0-r-servomax1;
#X msg 1357 282 set \$1;
#X obj 1357 301 s \$0-r-servomax2;
#X msg 1379 214 set \$1;
#X obj 1379 235 s \$0-r-servomax3;
#X msg 1140 347 set \$1;
#X obj 1140 366 s \$0-r-servomin1;
#X msg 1164 274 set \$1;
#X obj 1164 293 s \$0-r-servomin2;
#X msg 1189 211 set \$1;
#X obj 1189 230 s \$0-r-servomin3;
#X obj 1604 641 s \$0-sendOSC;
#X obj 1604 592 int;
#X obj 1604 568 r \$0-servoDelay1;
#X obj 1604 753 s \$0-sendOSC;
#X obj 1604 704 int;
#X obj 1604 680 r \$0-servoDelay2;
#X msg 1604 615 /set/servodelay 1 \$1;
#X msg 1604 727 /set/servodelay 2 \$1;
#X obj 112 295 hsl 162 19 0 180 0 0 empty \$0-last1 last\ 1 170 10 0 12 #feffc6 #000000 #000000 0 1;
#X obj 112 316 hsl 162 19 0 180 0 0 empty \$0-last2 last\ 2 170 10 0 12 #ffe3c6 #000000 #000000 0 1;
#X obj 112 337 hsl 162 19 0 180 0 0 empty \$0-last3 last\ 3 170 10 0 12 #ffc7c6 #000000 #000000 0 1;
#X obj 1052 44 route pos min max last;
#X obj 1354 56 route 1 2 3;
#X obj 1403 82 s \$0-last3;
#X obj 1378 101 s \$0-last2;
#X obj 1354 120 s \$0-last1;
#X obj 432 379 route servo loopdelay delaycount;
#X obj 525 445 route 1 2 3;
#X obj 549 490 s \$0-delaycount2;
#X obj 574 471 s \$0-delaycount3;
#X obj 525 509 s \$0-delaycount1;
#X obj 1603 863 s \$0-sendOSC;
#X obj 1603 814 int;
#X obj 1603 790 r \$0-servoDelay3;
#X msg 1603 837 /set/servodelay 3 \$1;
#X obj 111 758 bng 19 250 50 0 \$0-open1 empty open 25 10 0 12 #feffc6 #000000 #000000;
#X obj 171 759 bng 19 250 50 0 \$0-close1 empty close\ 1 25 10 0 12 #feffc6 #000000 #000000;
#X obj 111 782 bng 19 250 50 0 \$0-open2 empty open 25 10 0 12 #ffe3c6 #000000 #000000;
#X obj 171 783 bng 19 250 50 0 \$0-close2 empty close\ 2 25 10 0 12 #ffe3c6 #000000 #000000;
#X obj 111 806 bng 19 250 50 0 \$0-open3 empty open 25 10 0 12 #ffc7c6 #000000 #000000;
#X obj 171 807 bng 19 250 50 0 \$0-close3 empty close\ 3 25 10 0 12 #ffc7c6 #000000 #000000;
#X obj 172 732 bng 19 250 50 0 empty empty empty 0 -10 0 12 #fcfcfc #000000 #000000;
#X obj 111 731 bng 19 250 50 0 empty empty empty 0 -10 0 12 #fcfcfc #000000 #000000;
#X obj 293 758 bng 19 250 50 0 \$0-getminmax empty get\ min\ max 0 -10 0 12 #bbbbbb #000000 #000000;
#X obj 947 285 print other;
#X obj 102 915 oribokit.osc.openclose \$0 1 4000 30;
#X obj 102 936 oribokit.osc.openclose \$0 2 4000 30;
#X obj 102 957 oribokit.osc.openclose \$0 3 4000 30;
#X obj 408 854 bng 19 250 50 0 empty empty empty 0 -10 0 12 #fcfcfc #000000 #000000;
#X obj 426 854 f;
#X floatatom 507 828 5 0 0 0 - - - 0;
#X obj 467 859 + 1;
#X obj 515 798 s \$0-open1;
#X obj 514 773 route 0 1 2 3 4 5;
#X obj 527 819 s \$0-open2;
#X obj 406 939 print;
#X obj 540 837 s \$0-open3;
#X obj 561 859 s \$0-close1;
#X obj 573 880 s \$0-close2;
#X obj 586 898 s \$0-close3;
#X obj 407 880 mod 6;
#X obj 537 894 print;
#X obj 407 905 t f b;
#X obj 406 828 metro 1.5 1 sec;
#X obj 405 781 r \$0-auto;
#X obj 170 852 bng 19 250 50 0 \$0-auto-stop empty stop 0 -10 0 12 #fcfcfc #000000 #000000;
#X obj 110 854 bng 19 250 50 0 \$0-auto empty start 0 -10 0 12 #fcfcfc #000000 #000000;
#X msg 421 803 stop;
#X obj 422 756 r \$0-auto-stop;
#X obj 223 853 bng 19 250 50 0 \$0-bloom empty bloom 0 -10 0 12 #fcfcfc #000000 #000000;
#X obj 1148 766 r \$0-bloom;
#X obj 1604 489 route A B bloom;
#X msg 1148 811 /bloom;
#X obj 668 419 print ack;
#X obj 314 140 bng 19 250 50 0 \$0-setHI empty hi 0 -10 0 12 #fcfcfc #000000 #000000;
#X obj 337 140 bng 19 250 50 0 \$0-setLO empty lo 0 -10 0 12 #fcfcfc #000000 #000000;
#X obj 1229 788 int;
#X obj 1229 765 r \$0-setHI;
#X msg 1229 810 /set/ldr/hi;
#X obj 1323 788 int;
#X obj 1323 765 r \$0-setLO;
#X msg 1323 810 /set/ldr/lo;
#X obj 1148 867 s \$0-sendOSC;
#X obj 770 356 print ack;
#X connect 13 0 42 0;
#X connect 14 0 43 0;
#X connect 15 0 46 0;
#X connect 16 0 45 0;
#X connect 17 0 44 0;
#X connect 18 0 47 0;
#X connect 19 0 14 0;
#X connect 20 0 13 0;
#X connect 21 0 15 0;
#X connect 22 0 18 0;
#X connect 23 0 16 0;
#X connect 24 0 17 0;
#X connect 26 0 80 0;
#X connect 27 0 31 0;
#X connect 27 1 30 0;
#X connect 27 2 29 0;
#X connect 28 0 33 0;
#X connect 28 1 32 0;
#X connect 28 2 88 0;
#X connect 34 0 26 0;
#X connect 35 0 26 0;
#X connect 36 0 26 0;
#X connect 38 0 39 0;
#X connect 39 0 35 0;
#X connect 42 0 69 0;
#X connect 43 0 69 0;
#X connect 44 0 25 0;
#X connect 45 0 25 0;
#X connect 46 0 69 0;
#X connect 47 0 25 0;
#X connect 51 0 59 0;
#X connect 52 0 58 0;
#X connect 53 0 60 0;
#X connect 55 0 52 0;
#X connect 56 0 51 0;
#X connect 57 0 53 0;
#X connect 58 0 54 0;
#X connect 59 0 54 0;
#X connect 60 0 54 0;
#X connect 64 0 63 0;
#X connect 65 0 64 0;
#X connect 67 0 68 0;
#X connect 68 0 66 0;
#X connect 70 0 108 0;
#X connect 70 0 120 0;
#X connect 70 1 109 0;
#X connect 70 1 122 0;
#X connect 70 2 110 0;
#X connect 70 2 124 0;
#X connect 71 0 113 0;
#X connect 71 0 114 0;
#X connect 71 1 112 0;
#X connect 71 1 116 0;
#X connect 71 2 111 0;
#X connect 71 2 118 0;
#X connect 80 0 95 0;
#X connect 80 1 37 0;
#X connect 80 2 93 0;
#X connect 80 3 104 0;
#X connect 80 3 199 0;
#X connect 80 4 92 0;
#X connect 80 5 90 0;
#X connect 80 6 160 0;
#X connect 81 0 84 0;
#X connect 83 0 82 0;
#X connect 84 0 83 0;
#X connect 91 0 187 0;
#X connect 94 0 28 0;
#X connect 96 0 137 0;
#X connect 97 0 99 0;
#X connect 98 0 100 0;
#X connect 99 0 98 0;
#X connect 99 1 101 0;
#X connect 101 0 102 0;
#X connect 103 0 142 0;
#X connect 114 0 115 0;
#X connect 116 0 117 0;
#X connect 118 0 119 0;
#X connect 120 0 121 0;
#X connect 122 0 123 0;
#X connect 124 0 125 0;
#X connect 127 0 132 0;
#X connect 128 0 127 0;
#X connect 130 0 133 0;
#X connect 131 0 130 0;
#X connect 132 0 126 0;
#X connect 133 0 129 0;
#X connect 137 0 27 0;
#X connect 137 1 70 0;
#X connect 137 2 71 0;
#X connect 137 3 138 0;
#X connect 138 0 141 0;
#X connect 138 1 140 0;
#X connect 138 2 139 0;
#X connect 142 1 107 0;
#X connect 142 2 143 0;
#X connect 143 0 146 0;
#X connect 143 1 144 0;
#X connect 143 2 145 0;
#X connect 148 0 150 0;
#X connect 149 0 148 0;
#X connect 150 0 147 0;
#X connect 157 0 152 0;
#X connect 157 0 154 0;
#X connect 157 0 156 0;
#X connect 158 0 151 0;
#X connect 158 0 153 0;
#X connect 158 0 155 0;
#X connect 165 0 167 0;
#X connect 165 0 176 0;
#X connect 166 0 165 0;
#X connect 167 0 165 1;
#X connect 169 0 168 0;
#X connect 169 1 170 0;
#X connect 169 2 172 0;
#X connect 169 3 173 0;
#X connect 169 4 174 0;
#X connect 169 5 175 0;
#X connect 169 5 177 0;
#X connect 176 0 178 0;
#X connect 178 0 169 0;
#X connect 178 0 171 0;
#X connect 179 0 164 0;
#X connect 179 0 165 0;
#X connect 180 0 179 0;
#X connect 183 0 179 0;
#X connect 184 0 183 0;
#X connect 184 0 179 0;
#X connect 186 0 188 0;
#X connect 187 0 87 0;
#X connect 187 1 89 0;
#X connect 188 0 198 0;
#X connect 192 0 194 0;
#X connect 193 0 192 0;
#X connect 194 0 198 0;
#X connect 195 0 197 0;
#X connect 196 0 195 0;
#X connect 197 0 198 0;
#X coords 0 0 1 1 280 800 1 100 100;
