#N canvas 334 102 1681 1074 12;
#X obj 259 420 line 5000, f 14;
#X floatatom 310 230 5 0 0 0 - - - 0;
#X floatatom 372 210 5 0 0 0 - - - 0;
#X obj 144 162 r \$1-open\$2;
#X obj 259 455 s \$1-servopos\$2;
#X text 541 301 \$1 = parent \$2 = servo number \$3 = ramp time \$4 = grain;
#X msg 257 230 1;
#X obj 258 350 pack f f \$3 \$4;
#X obj 259 385 route 1;
#X obj 381 396 print;
#X obj 257 163 r \$1-close\$2;
#X obj 258 273 pack f f;
#X obj 372 164 r \$1-r-servomax\$2;
#X obj 384 121 r \$1-r-servomin\$2;
#X connect 0 0 4 0;
#X connect 1 0 11 1;
#X connect 2 0 11 1;
#X connect 3 0 1 0;
#X connect 3 0 6 0;
#X connect 6 0 11 0;
#X connect 7 0 8 0;
#X connect 7 0 9 0;
#X connect 8 0 0 0;
#X connect 10 0 2 0;
#X connect 10 0 6 0;
#X connect 11 0 7 0;
#X connect 12 0 2 0;
#X connect 13 0 1 0;
